<svg xmlns="http://www.w3.org/2000/svg" width="480" height="60" class="">
    <defs>
        <style/>
    </defs>
    <style>@keyframes animation-gauge{0%{stroke-dasharray:0 329}}@keyframes animation-rainbow{0%,to{color:#7f00ff;fill:#7f00ff}14%{color:#a933ff;fill:#a933ff}29%{color:#007fff;fill:#007fff}43%{color:#00ff7f;fill:#00ff7f}57%{color:#ff0;fill:#ff0}71%{color:#ff7f00;fill:#ff7f00}86%{color:red;fill:red}}svg{font-family:-apple-system,BlinkMacSystemFont,Segoe UI,Helvetica,Arial,sans-serif,Apple Color Emoji,Segoe UI Emoji;font-size:14px;color:#777}h2{margin:8px 0 2px;padding:0;color:#0366d6;font-weight:400;font-size:16px}h2 svg{fill:currentColor}section&gt;.field{margin-left:5px;margin-right:5px}.field{display:flex;align-items:center;margin-bottom:2px;white-space:nowrap}.field svg{margin:0 8px;fill:#959da5;flex-shrink:0}.field.error{color:#cb2431}.field.error svg{fill:#cb2431}.field.warning{color:#d79533}.field.warning svg{fill:#d79533}.anilist .characters,.row{display:flex;flex-wrap:wrap}.row section{flex:1 1 0}.anilist,.categories{display:flex;margin-top:4px}.categories{align-items:center;justify-content:space-around}.anilist{flex-direction:column;align-items:flex-start;margin-left:28px}.stackoverflow{margin-left:38px}:root{--color-calendar-graph-day-bg:#ebedf0;--color-calendar-graph-day-border:rgba(27,31,35,0.06);--color-calendar-graph-day-L1-bg:#9be9a8;--color-calendar-graph-day-L2-bg:#40c463;--color-calendar-graph-day-L3-bg:#30a14e;--color-calendar-graph-day-L4-bg:#216e39;--color-calendar-halloween-graph-day-L1-bg:#ffee4a;--color-calendar-halloween-graph-day-L2-bg:#ffc501;--color-calendar-halloween-graph-day-L3-bg:#fe9600;--color-calendar-halloween-graph-day-L4-bg:#03001c;--color-calendar-winter-graph-day-L1-bg:#0a3069;--color-calendar-winter-graph-day-L2-bg:#0969da;--color-calendar-winter-graph-day-L3-bg:#54aeff;--color-calendar-winter-graph-day-L4-bg:#b6e3ff;--color-calendar-graph-day-L4-border:rgba(27,31,35,0.06);--color-calendar-graph-day-L3-border:rgba(27,31,35,0.06);--color-calendar-graph-day-L2-border:rgba(27,31,35,0.06);--color-calendar-graph-day-L1-border:rgba(27,31,35,0.06)}#metrics-end{width:100%}</style>
    <style>.field.warning { display: none; }
/* Hide Irrelevent warnings (temporary fix) */</style>
    <foreignObject x="0" y="0" width="100%" height="100%">
        <div xmlns="http://www.w3.org/1999/xhtml" xmlns:xlink="http://www.w3.org/1999/xlink" class="items-wrapper">
            <section>
                <div class="row">
                    <div class="field warning">
                        <svg xmlns="http://www.w3.org/2000/svg" viewBox="0 0 16 16" width="16" height="16">
                            <path fill-rule="evenodd" d="M8.22 1.754a.25.25 0 00-.44 0L1.698 13.132a.25.25 0 00.22.368h12.164a.25.25 0 00.22-.368L8.22 1.754zm-1.763-.707c.659-1.234 2.427-1.234 3.086 0l6.082 11.378A1.75 1.75 0 0114.082 15H1.918a1.75 1.75 0 01-1.543-2.575L6.457 1.047zM9 11a1 1 0 11-2 0 1 1 0 012 0zm-.25-5.25a.75.75 0 00-1.5 0v2.5a.75.75 0 001.5 0v-2.5z"/>
                        </svg>
                        "achievements.threshold" has no effect because "achievements: true" is not set, "achievements.secrets" has no effect because "achievements: true" is not set, "achievements.display" has no effect because "achievements: true" is not set, "achievements.limit" has no effect because "achievements: true" is not set, "achievements.ignored" has no effect because "achievements: true" is not set, "achievements.only" has no effect because "achievements: true" is not set, "anilist.user" has no effect because "anilist: true" is not set, "anilist.medias" has no effect because "anilist: true" is not set, "anilist.sections" has no effect because "anilist: true" is not set, "anilist.limit" has no effect because "anilist: true" is not set, "anilist.limit.characters" has no effect because "anilist: true" is not set, "anilist.shuffle" has no effect because "anilist: true" is not set, "languages.ignored" has no effect because "languages: true" is not set, "languages.skipped" has no effect because "languages: true" is not set, "languages.limit" has no effect because "languages: true" is not set, "languages.threshold" has no effect because "languages: true" is not set, "languages.other" has no effect because "languages: true" is not set, "languages.colors" has no effect because "languages: true" is not set, "languages.aliases" has no effect because "languages: true" is not set, "languages.sections" has no effect because "languages: true" is not set, "languages.details" has no effect because "languages: true" is not set, "languages.indepth" has no effect because "languages: true" is not set, "languages.indepth.custom" has no effect because "languages: true" is not set, "languages.analysis.timeout" has no effect because "languages: true" is not set, "languages.analysis.timeout.repositories" has no effect because "languages: true" is not set, "languages.categories" has no effect because "languages: true" is not set, "languages.recent.categories" has no effect because "languages: true" is not set, "languages.recent.load" has no effect because "languages: true" is not set, "languages.recent.days" has no effect because "languages: true" is not set, "music.provider" has no effect because "music: true" is not set, "music.user" has no effect because "music: true" is not set, "music.mode" has no effect because "music: true" is not set, "music.playlist" has no effect because "music: true" is not set, "music.limit" has no effect because "music: true" is not set, "music.played.at" has no effect because "music: true" is not set, "music.time.range" has no effect because "music: true" is not set, "music.top.type" has no effect because "music: true" is not set, "notable.filter" has no effect because "notable: true" is not set, "notable.skipped" has no effect because "notable: true" is not set, "notable.from" has no effect because "notable: true" is not set, "notable.repositories" has no effect because "notable: true" is not set, "notable.indepth" has no effect because "notable: true" is not set, "notable.types" has no effect because "notable: true" is not set, "notable.self" has no effect because "notable: true" is not set, "stackoverflow.user" has no effect because "stackoverflow: true" is not set, "stackoverflow.sections" has no effect because "stackoverflow: true" is not set, "stackoverflow.limit" has no effect because "stackoverflow: true" is not set, "stackoverflow.lines" has no effect because "stackoverflow: true" is not set, "stackoverflow.lines.snippet" has no effect because "stackoverflow: true" is not set
                    </div>
                </div>
            </section>
            <section class="steam">
                <h2 class="field">
                    <svg xmlns="http://www.w3.org/2000/svg" viewBox="0 0 16 16" width="16" height="16">
                        <path fill-rule="evenodd" d="M3.267 1.457c.3.286.312.76.026 1.06A6.475 6.475 0 001.5 7a6.472 6.472 0 001.793 4.483.75.75 0 01-1.086 1.034 8.89 8.89 0 01-.276-.304l.569-.49-.569.49A7.971 7.971 0 010 7c0-2.139.84-4.083 2.207-5.517a.75.75 0 011.06-.026zm9.466 0a.75.75 0 011.06.026A7.975 7.975 0 0116 7c0 2.139-.84 4.083-2.207 5.517a.75.75 0 11-1.086-1.034A6.475 6.475 0 0014.5 7a6.475 6.475 0 00-1.793-4.483.75.75 0 01.026-1.06zM8.75 8.582a1.75 1.75 0 10-1.5 0v5.668a.75.75 0 001.5 0V8.582zM5.331 4.736a.75.75 0 10-1.143-.972A4.983 4.983 0 003 7c0 1.227.443 2.352 1.177 3.222a.75.75 0 001.146-.967A3.483 3.483 0 014.5 7c0-.864.312-1.654.831-2.264zm6.492-.958a.75.75 0 00-1.146.967c.514.61.823 1.395.823 2.255 0 .86-.31 1.646-.823 2.255a.75.75 0 101.146.967A4.983 4.983 0 0013 7a4.983 4.983 0 00-1.177-3.222z"/>
                    </svg>
                    Steam
                </h2>
                <div class="row">
                    <section>
                        <div class="field error">
                            <svg xmlns="http://www.w3.org/2000/svg" viewBox="0 0 16 16" width="16" height="16">
                                <path fill-rule="evenodd" d="M2.343 13.657A8 8 0 1113.657 2.343 8 8 0 012.343 13.657zM6.03 4.97a.75.75 0 00-1.06 1.06L6.94 8 4.97 9.97a.75.75 0 101.06 1.06L8 9.06l1.97 1.97a.75.75 0 101.06-1.06L9.06 8l1.97-1.97a.75.75 0 10-1.06-1.06L8 6.94 6.03 4.97z"/>
                            </svg>
                            Unexpected error
                        </div>
                    </section>
                </div>
            </section>
        </div>
        <div xmlns="http://www.w3.org/1999/xhtml" id="metrics-end"></div>
    </foreignObject>
</svg>