<svg xmlns="http://www.w3.org/2000/svg" width="480" height="181"><defs><style/></defs><style>@keyframes animation-gauge{0%{stroke-dasharray:0 329}}@keyframes animation-rainbow{0%,to{color:#7f00ff;fill:#7f00ff}14%{color:#a933ff;fill:#a933ff}29%{color:#007fff;fill:#007fff}43%{color:#00ff7f;fill:#00ff7f}57%{color:#ff0;fill:#ff0}71%{color:#ff7f00;fill:#ff7f00}86%{color:red;fill:red}}svg{font-family:-apple-system,BlinkMacSystemFont,Segoe UI,Helvetica,Arial,sans-serif,Apple Color Emoji,Segoe UI Emoji;color:#777}h2,h3{margin:8px 0 2px;padding:0;color:#0366d6;font-weight:400}h2 svg,h3 svg{fill:currentColor}h2{font-size:16px}h3,svg{font-size:14px}section&gt;.field{margin-left:5px;margin-right:5px}.field{display:flex;align-items:center;margin-bottom:2px;white-space:nowrap}.field svg{margin:0 8px;fill:#959da5;flex-shrink:0}.field.warning{color:#d79533}.field.warning svg{fill:#d79533}.row{display:flex;flex-wrap:wrap}.row section{flex:1 1 0}.column{display:flex;flex-direction:column;align-items:center}#metrics-end,.fill-width{width:100%}svg.bar{margin:4px 0}.field.language{margin:0 8px;flex-grow:0}.field.language.details,.field.language.details small{display:flex;justify-content:space-between}.field.language.details small{color:#666;text-align:right}.field.language.details small&gt;*,.field.language.details&gt;*{flex:1 1 0}.field.language.details small&gt;:not(:last-child){margin-right:6px}.anilist{display:flex;flex-direction:column;align-items:flex-start;margin-top:4px}.anilist .characters{display:flex;flex-wrap:wrap}.anilist,.steam .games{margin-left:28px}.stackoverflow{margin-left:38px}code{background-color:#7777771f;display:inline-block;border-radius:6px;color:#777;padding:1px 5px;font-size:80%;font-family:SFMono-Regular,Consolas,Liberation Mono,Menlo,monospace}:root{--color-calendar-graph-day-bg:#ebedf0;--color-calendar-graph-day-border:rgba(27,31,35,0.06);--color-calendar-graph-day-L1-bg:#9be9a8;--color-calendar-graph-day-L2-bg:#40c463;--color-calendar-graph-day-L3-bg:#30a14e;--color-calendar-graph-day-L4-bg:#216e39;--color-calendar-halloween-graph-day-L1-bg:#ffee4a;--color-calendar-halloween-graph-day-L2-bg:#ffc501;--color-calendar-halloween-graph-day-L3-bg:#fe9600;--color-calendar-halloween-graph-day-L4-bg:#03001c;--color-calendar-winter-graph-day-L1-bg:#0a3069;--color-calendar-winter-graph-day-L2-bg:#0969da;--color-calendar-winter-graph-day-L3-bg:#54aeff;--color-calendar-winter-graph-day-L4-bg:#b6e3ff;--color-calendar-graph-day-L4-border:rgba(27,31,35,0.06);--color-calendar-graph-day-L3-border:rgba(27,31,35,0.06);--color-calendar-graph-day-L2-border:rgba(27,31,35,0.06);--color-calendar-graph-day-L1-border:rgba(27,31,35,0.06)}</style><style>.field.warning{display:none}</style><foreignObject width="100%" height="100%" x="0" y="0"><div xmlns="http://www.w3.org/1999/xhtml" xmlns:xlink="http://www.w3.org/1999/xlink" class="items-wrapper"><section><div class="row"><div class="field warning"><svg xmlns="http://www.w3.org/2000/svg" width="16" height="16" viewBox="0 0 16 16"><path fill-rule="evenodd" d="M8.22 1.754a.25.25 0 00-.44 0L1.698 13.132a.25.25 0 00.22.368h12.164a.25.25 0 00.22-.368L8.22 1.754zm-1.763-.707c.659-1.234 2.427-1.234 3.086 0l6.082 11.378A1.75 1.75 0 0114.082 15H1.918a1.75 1.75 0 01-1.543-2.575L6.457 1.047zM9 11a1 1 0 11-2 0 1 1 0 012 0zm-.25-5.25a.75.75 0 00-1.5 0v2.5a.75.75 0 001.5 0v-2.5z"/></svg>&quot;achievements.threshold&quot; has no effect because &quot;achievements: true&quot; is not set, &quot;achievements.secrets&quot; has no effect because &quot;achievements: true&quot; is not set, &quot;achievements.display&quot; has no effect because &quot;achievements: true&quot; is not set, &quot;achievements.limit&quot; has no effect because &quot;achievements: true&quot; is not set, &quot;achievements.ignored&quot; has no effect because &quot;achievements: true&quot; is not set, &quot;achievements.only&quot; has no effect because &quot;achievements: true&quot; is not set, &quot;anilist.user&quot; has no effect because &quot;anilist: true&quot; is not set, &quot;anilist.medias&quot; has no effect because &quot;anilist: true&quot; is not set, &quot;anilist.sections&quot; has no effect because &quot;anilist: true&quot; is not set, &quot;anilist.limit&quot; has no effect because &quot;anilist: true&quot; is not set, &quot;anilist.limit.characters&quot; has no effect because &quot;anilist: true&quot; is not set, &quot;anilist.shuffle&quot; has no effect because &quot;anilist: true&quot; is not set, &quot;music.provider&quot; has no effect because &quot;music: true&quot; is not set, &quot;music.user&quot; has no effect because &quot;music: true&quot; is not set, &quot;music.mode&quot; has no effect because &quot;music: true&quot; is not set, &quot;music.playlist&quot; has no effect because &quot;music: true&quot; is not set, &quot;music.limit&quot; has no effect because &quot;music: true&quot; is not set, &quot;music.played.at&quot; has no effect because &quot;music: true&quot; is not set, &quot;music.time.range&quot; has no effect because &quot;music: true&quot; is not set, &quot;music.top.type&quot; has no effect because &quot;music: true&quot; is not set, &quot;notable.filter&quot; has no effect because &quot;notable: true&quot; is not set, &quot;notable.skipped&quot; has no effect because &quot;notable: true&quot; is not set, &quot;notable.from&quot; has no effect because &quot;notable: true&quot; is not set, &quot;notable.repositories&quot; has no effect because &quot;notable: true&quot; is not set, &quot;notable.indepth&quot; has no effect because &quot;notable: true&quot; is not set, &quot;notable.types&quot; has no effect because &quot;notable: true&quot; is not set, &quot;notable.self&quot; has no effect because &quot;notable: true&quot; is not set, &quot;stackoverflow.user&quot; has no effect because &quot;stackoverflow: true&quot; is not set, &quot;stackoverflow.sections&quot; has no effect because &quot;stackoverflow: true&quot; is not set, &quot;stackoverflow.limit&quot; has no effect because &quot;stackoverflow: true&quot; is not set, &quot;stackoverflow.lines&quot; has no effect because &quot;stackoverflow: true&quot; is not set, &quot;stackoverflow.lines.snippet&quot; has no effect because &quot;stackoverflow: true&quot; is not set, &quot;steam.sections&quot; has no effect because &quot;steam: true&quot; is not set, &quot;steam.user&quot; has no effect because &quot;steam: true&quot; is not set, &quot;steam.games.ignored&quot; has no effect because &quot;steam: true&quot; is not set, &quot;steam.games.limit&quot; has no effect because &quot;steam: true&quot; is not set, &quot;steam.recent.games.limit&quot; has no effect because &quot;steam: true&quot; is not set, &quot;steam.achievements.limit&quot; has no effect because &quot;steam: true&quot; is not set, &quot;steam.playtime.threshold&quot; has no effect because &quot;steam: true&quot; is not set</div></div></section><section><h2 class="field"><svg xmlns="http://www.w3.org/2000/svg" width="16" height="16" viewBox="0 0 16 16"><path fill-rule="evenodd" d="M1.5 2.75a.25.25 0 01.25-.25h12.5a.25.25 0 01.25.25v8.5a.25.25 0 01-.25.25h-6.5a.75.75 0 00-.53.22L4.5 14.44v-2.19a.75.75 0 00-.75-.75h-2a.25.25 0 01-.25-.25v-8.5zM1.75 1A1.75 1.75 0 000 2.75v8.5C0 12.216.784 13 1.75 13H3v1.543a1.457 1.457 0 002.487 1.03L8.061 13h6.189A1.75 1.75 0 0016 11.25v-8.5A1.75 1.75 0 0014.25 1H1.75zm5.03 3.47a.75.75 0 010 1.06L5.31 7l1.47 1.47a.75.75 0 01-1.06 1.06l-2-2a.75.75 0 010-1.06l2-2a.75.75 0 011.06 0zm2.44 0a.75.75 0 000 1.06L10.69 7 9.22 8.47a.75.75 0 001.06 1.06l2-2a.75.75 0 000-1.06l-2-2a.75.75 0 00-1.06 0z"/></svg>32 Languages</h2></section><section class="column"><h3 class="field">Most used languages</h3><small>estimation from 27.4mb of code in 3517 edited files across 1156 commits</small><svg xmlns="http://www.w3.org/2000/svg" width="460" height="8" class="bar"><mask id="languages-bar"><rect width="460" height="8" x="0" y="0" fill="#fff" rx="5"/></mask><rect width="0" height="8" x="0" y="0" fill="#d1d5da" mask="url(#languages-bar)"/><rect width="346.893" height="8" x="0" y="0" fill="red" mask="url(#languages-bar)"/><rect width="44.236" height="8" x="346.893" y="0" fill="orange" mask="url(#languages-bar)"/><rect width="15.842" height="8" x="391.129" y="0" fill="#ff0" mask="url(#languages-bar)"/><rect width="14.909" height="8" x="406.971" y="0" fill="green" mask="url(#languages-bar)"/><rect width="13.79" height="8" x="421.88" y="0" fill="#00f" mask="url(#languages-bar)"/><rect width="13.494" height="8" x="435.669" y="0" fill="indigo" mask="url(#languages-bar)"/><rect width="9.218" height="8" x="449.163" y="0" fill="violet" mask="url(#languages-bar)"/><rect width="1.619" height="8" x="458.381" y="0" fill="#162221" mask="url(#languages-bar)"/></svg><div class="row fill-width"><section><div class="field language details"><div class="field"><svg xmlns="http://www.w3.org/2000/svg" width="16" height="16" viewBox="0 0 16 16"><path fill="red" fill-rule="evenodd" d="M8 4a4 4 0 100 8 4 4 0 000-8z"/></svg>JavaScript</div><small><div>971 kB</div><div>75.41%</div></small></div><div class="field language details"><div class="field"><svg xmlns="http://www.w3.org/2000/svg" width="16" height="16" viewBox="0 0 16 16"><path fill="#ff0" fill-rule="evenodd" d="M8 4a4 4 0 100 8 4 4 0 000-8z"/></svg>Go</div><small><div>44.3 kB</div><div>3.44%</div></small></div><div class="field language details"><div class="field"><svg xmlns="http://www.w3.org/2000/svg" width="16" height="16" viewBox="0 0 16 16"><path fill="#00f" fill-rule="evenodd" d="M8 4a4 4 0 100 8 4 4 0 000-8z"/></svg>PHP</div><small><div>38.6 kB</div><div>3%</div></small></div><div class="field language details"><div class="field"><svg xmlns="http://www.w3.org/2000/svg" width="16" height="16" viewBox="0 0 16 16"><path fill="violet" fill-rule="evenodd" d="M8 4a4 4 0 100 8 4 4 0 000-8z"/></svg>TSX</div><small><div>25.8 kB</div><div>2%</div></small></div></section><section><div class="field language details"><div class="field"><svg xmlns="http://www.w3.org/2000/svg" width="16" height="16" viewBox="0 0 16 16"><path fill="orange" fill-rule="evenodd" d="M8 4a4 4 0 100 8 4 4 0 000-8z"/></svg>Python</div><small><div>123 kB</div><div>9.62%</div></small></div><div class="field language details"><div class="field"><svg xmlns="http://www.w3.org/2000/svg" width="16" height="16" viewBox="0 0 16 16"><path fill="green" fill-rule="evenodd" d="M8 4a4 4 0 100 8 4 4 0 000-8z"/></svg>C</div><small><div>41.7 kB</div><div>3.24%</div></small></div><div class="field language details"><div class="field"><svg xmlns="http://www.w3.org/2000/svg" width="16" height="16" viewBox="0 0 16 16"><path fill="indigo" fill-rule="evenodd" d="M8 4a4 4 0 100 8 4 4 0 000-8z"/></svg>SCSS</div><small><div>37.8 kB</div><div>2.93%</div></small></div><div class="field language details"><div class="field"><svg xmlns="http://www.w3.org/2000/svg" width="16" height="16" viewBox="0 0 16 16"><path fill="#162221" fill-rule="evenodd" d="M8 4a4 4 0 100 8 4 4 0 000-8z"/></svg>Shell</div><small><div>4.54 kB</div><div>0.35%</div></small></div></section></div></section></div><div xmlns="http://www.w3.org/1999/xhtml" id="metrics-end"/></foreignObject></svg>